HIERARCHY
ROOT Hips
{
	OFFSET 0.00000 0.00000 0.00000
	CHANNELS 6 Xposition Yposition Zposition Zrotation Yrotation Xrotation 
	JOINT LHipJoint
	{
		OFFSET 0 0 0
		CHANNELS 3 Zrotation Yrotation Xrotation
		JOINT LeftHip
		{
			OFFSET 1.54859 -1.61379 0.86856
			CHANNELS 3 Zrotation Yrotation Xrotation
			JOINT LeftKnee
			{
				OFFSET 2.25087 -6.18423 0.00000
				CHANNELS 3 Zrotation Yrotation Xrotation
				JOINT LeftAnkle
				{
					OFFSET 2.40328 -6.60297 0.00000
					CHANNELS 3 Zrotation Yrotation Xrotation
					JOINT LeftToe
					{
						OFFSET 0.17435 -0.47901 2.02453
						CHANNELS 3 Zrotation Yrotation Xrotation
						End Site
						{
							OFFSET 0.00000 -0.00000 1.04844
						}
					}
				}
			}
		}
	}
	JOINT RHipJoint
	{
		OFFSET 0 0 0
		CHANNELS 3 Zrotation Yrotation Xrotation
		JOINT RightHip
		{
			OFFSET -1.54669 -1.61379 0.86856
			CHANNELS 3 Zrotation Yrotation Xrotation
			JOINT RightKnee
			{
				OFFSET -2.28132 -6.26789 0.00000
				CHANNELS 3 Zrotation Yrotation Xrotation
				JOINT RightAnkle
				{
					OFFSET -2.51636 -6.91365 0.00000
					CHANNELS 3 Zrotation Yrotation Xrotation
					JOINT RightToe
					{
						OFFSET -0.15124 -0.41552 2.21090
						CHANNELS 3 Zrotation Yrotation Xrotation
						End Site
						{
							OFFSET -0.00000 -0.00000 1.13399
						}
					}
				}
			}
		}
	}
	JOINT lowerback
	{
		OFFSET 0 0 0
		CHANNELS 3 Zrotation Yrotation Xrotation
		JOINT Chest
		{
			OFFSET -0.04287 2.26161 -0.25690
			CHANNELS 3 Zrotation Yrotation Xrotation
			JOINT Chest2
			{
				OFFSET 0.02248 2.28395 -0.10140
				CHANNELS 3 Zrotation Yrotation Xrotation
				JOINT lowerneck
				{
					OFFSET 0 0 0
					CHANNELS 3 Zrotation Yrotation Xrotation
					JOINT Neck
					{
						OFFSET -0.11644 1.38496 0.11345
						CHANNELS 3 Zrotation Yrotation Xrotation
						JOINT Head
						{
							OFFSET 0.29383 1.36600 0.06642
							CHANNELS 3 Zrotation Yrotation Xrotation
							End Site
							{
								OFFSET 0.11075 1.41395 -0.00294
							}
						}
					}
				}
				JOINT LeftCollar
				{
					OFFSET 0 0 0
					CHANNELS 3 Zrotation Yrotation Xrotation
					JOINT LeftShoulder
					{
						OFFSET 3.51628 0.59542 -0.30346
CHANNELS 3 Zrotation Xrotation Yrotation
						JOINT LeftElbow
						{
OFFSET 0 -4.764050 0.000000
CHANNELS 3 Zrotation Xrotation Yrotation
							JOINT LeftWrist
							{
OFFSET 0 -3.137590 -0.000000
CHANNELS 3 Zrotation Xrotation Yrotation
								JOINT lhand
								{
									OFFSET 0 0 0
CHANNELS 3 Zrotation Xrotation Yrotation
									JOINT LFingers
									{
OFFSET 0 -0.732260 -0.000000
CHANNELS 3 Zrotation Xrotation Yrotation
										End Site
										{
OFFSET 0 -0.590370 -0.000000
										}
									}
								}
								JOINT LThumb
								{
OFFSET 0 0.000000 0.000000
CHANNELS 3 Zrotation Xrotation Yrotation
									End Site
									{
OFFSET 0 -0.599380 0.599380
									}
								}
							}
						}
					}
				}
				JOINT RightCollar
				{
					OFFSET 0 0 0
					CHANNELS 3 Zrotation Yrotation Xrotation
					JOINT RightShoulder
					{
						OFFSET -3.30990 0.84213 -0.36430
CHANNELS 3 Zrotation Xrotation Yrotation
						JOINT RightElbow
						{
OFFSET 0 -5.101610 -0.000000
CHANNELS 3 Zrotation Xrotation Yrotation
							JOINT RightWrist
							{
OFFSET 0 -3.232670 -0.000000
CHANNELS 3 Zrotation Xrotation Yrotation
								JOINT rhand
								{
									OFFSET 0 0 0
CHANNELS 3 Zrotation Xrotation Yrotation
									JOINT RFingers
									{
OFFSET 0 -0.702000 -0.000000
CHANNELS 3 Zrotation Xrotation Yrotation
										End Site
										{
OFFSET 0 -0.565970 -0.000000
										}
									}
								}
								JOINT RThumb
								{
OFFSET 0 0.000000 0.000000
CHANNELS 3 Zrotation Xrotation Yrotation
									End Site
									{
OFFSET 0 -0.574610 0.574610
									}
								}
							}
						}
					}
				}
			}
		}
	}
}
MOTION
Frames: 7
Frame Time: 0.008333333333333333
-35.193500 12.927300 -7.179300 -176.551000 45.375100 176.361000 0.000000 0.000000 0.000000 -20.266000 -8.677800 -53.096600 16.463900 19.697500 79.610800 0.638000 -2.663400 -14.416200 0.045600 -1.378200 -3.790000 0.000000 0.000000 0.000000 14.545500 6.773200 -46.868500 -22.875900 -19.800500 98.435400 -0.774400 -7.326000 -20.852800 -0.000400 -0.129800 0.356700 -16.913900 -1.563100 36.300100 -1.409000 -4.171800 15.346400 8.347500 -1.661900 0.605300 -12.321200 -6.758000 -9.704300 26.274400 -5.137200 -14.058900 10.364500 -1.985400 -1.044100 -0.000000 -0.000000 0.000000 18.675800 -64.545900 -29.816100 13.462100 -21.960500 2.623600 22.392600 26.428000 -22.843900 0.000000 0.000000 0.000000 -7.125000 0.000000 0.000000 -7.047500 54.337200 1.623100 -0.000000 -0.000000 0.000000 -7.615900 -5.640100 9.801300 -42.758000 -49.621600 -20.516200 -45.702800 -46.229700 -34.586600 0.000000 0.000000 0.000000 7.125000 0.000000 -0.000000 -6.709000 -14.388100 -8.214100
-35.063284 12.909262 -7.170712 -176.937608 45.015326 176.015995 0.000000 0.000000 0.000000 -20.200446 -8.814792 -52.816109 16.622317 19.722729 80.079840 0.686645 -2.885113 -14.919176 0.034100 -1.127930 -3.101476 0.000000 0.000000 0.000000 13.230677 7.331894 -47.600261 -22.668986 -19.825818 97.825951 -0.700942 -7.831829 -20.554628 -0.067885 0.821178 -2.267686 -16.739823 -1.645146 36.413022 -1.704528 -4.194800 15.387260 7.950046 -1.621813 0.581705 -12.249614 -6.783883 -9.509540 26.364440 -5.152177 -14.194792 10.390769 -2.009619 -1.109149 0.000000 0.000000 0.000000 19.703059 -64.724108 -30.126961 13.892480 -22.572862 2.791734 22.207201 25.865502 -23.402951 0.000000 0.000000 0.000000 -7.125000 0.000000 0.000000 -7.463022 54.877232 1.830905 0.000000 0.000000 0.000000 -6.846637 -5.004738 9.298383 -43.172303 -49.836953 -20.833510 -46.040792 -46.380718 -34.410650 0.000000 0.000000 0.000000 7.125000 0.000000 0.000000 -6.938706 -14.356660 -8.496374
-34.933067 12.891225 -7.162124 -177.324215 44.655552 175.670990 0.000000 0.000000 0.000000 -20.134892 -8.951783 -52.535618 16.780734 19.747958 80.548881 0.735291 -3.106825 -15.422153 0.022600 -0.877660 -2.412952 0.000000 0.000000 0.000000 11.915855 7.890588 -48.332023 -22.462072 -19.851136 97.216501 -0.627483 -8.337658 -20.256455 -0.135371 1.772155 -4.892071 -16.565745 -1.727193 36.525943 -2.000055 -4.217801 15.428120 7.552592 -1.581726 0.558111 -12.178027 -6.809766 -9.314780 26.454480 -5.167154 -14.330684 10.417038 -2.033837 -1.174197 0.000000 0.000000 0.000000 20.730318 -64.902316 -30.437822 14.322859 -23.185223 2.959868 22.021801 25.303004 -23.962002 0.000000 0.000000 0.000000 -7.125000 0.000000 0.000000 -7.878543 55.417265 2.038711 0.000000 0.000000 0.000000 -6.077374 -4.369376 8.795466 -43.586606 -50.052307 -21.150819 -46.378784 -46.531735 -34.234701 0.000000 0.000000 0.000000 7.125000 0.000000 0.000000 -7.168412 -14.325221 -8.778648
-34.802851 12.873187 -7.153536 -177.710823 44.295778 175.325985 0.000000 0.000000 0.000000 -20.069338 -9.088775 -52.255127 16.939151 19.773187 81.017921 0.783936 -3.328538 -15.925129 0.011099 -0.627391 -1.724427 0.000000 0.000000 0.000000 10.601032 8.449282 -49.063784 -22.255158 -19.876455 96.607052 -0.554025 -8.843487 -19.958283 -0.202856 2.723133 -7.516457 -16.391668 -1.809239 36.638865 -2.295583 -4.240801 15.468979 7.155138 -1.541639 0.534516 -12.106441 -6.835648 -9.120020 26.544520 -5.182131 -14.466576 10.443307 -2.058056 -1.239246 0.000000 0.000000 0.000000 21.757577 -65.080524 -30.748683 14.753239 -23.797585 3.128003 21.836402 24.740507 -24.521052 0.000000 0.000000 0.000000 -7.125000 0.000000 0.000000 -8.294065 55.957297 2.246516 0.000000 0.000000 0.000000 -5.308111 -3.734014 8.292549 -44.000910 -50.267660 -21.468129 -46.716776 -46.682753 -34.058751 0.000000 0.000000 0.000000 7.125000 0.000000 0.000000 -7.398119 -14.293781 -9.060922
-34.676841 12.858130 -7.146948 -178.237785 43.922554 174.964945 0.000000 0.000000 0.000000 -20.145251 -9.355198 -51.961939 17.061555 19.791266 81.379715 0.832355 -3.330325 -16.426634 0.019992 -0.770998 -2.120005 0.000000 0.000000 0.000000 9.115294 8.929801 -49.788999 -21.981633 -19.901471 95.803748 -0.501676 -9.050140 -19.593009 -0.292810 3.406250 -9.419605 -16.219382 -1.902208 36.686137 -2.637310 -4.275705 15.484353 6.714955 -1.504457 0.501998 -11.968847 -6.864059 -8.989665 26.572835 -5.216822 -14.535499 10.429772 -2.088066 -1.277488 0.000000 0.000000 0.000000 22.936283 -65.173916 -31.245117 15.259059 -24.496064 3.338337 21.661359 24.001698 -25.289766 0.000000 0.000000 0.000000 -7.125000 0.000000 0.000000 -8.836489 56.705276 2.571340 0.000000 0.000000 0.000000 -4.484838 -3.113442 7.745772 -44.434719 -50.485258 -21.802680 -46.935297 -46.812718 -33.886065 0.000000 0.000000 0.000000 7.125000 0.000000 0.000000 -7.565665 -14.208878 -9.260776
-34.553252 12.844787 -7.141510 -178.845481 43.541592 174.594681 0.000000 0.000000 0.000000 -20.302539 -9.696072 -51.661449 17.163244 19.805233 81.679819 0.880644 -3.205606 -16.927292 0.040615 -1.141173 -3.139181 0.000000 0.000000 0.000000 7.531243 9.365351 -50.510449 -21.669791 -19.926314 94.888935 -0.461470 -9.084700 -19.189136 -0.395687 3.935287 -10.907881 -16.048128 -2.001460 36.695646 -3.005613 -4.317456 15.485066 6.250194 -1.468946 0.464348 -11.793284 -6.893924 -8.896356 26.565643 -5.262852 -14.565898 10.393340 -2.121408 -1.300310 0.000000 0.000000 0.000000 24.202104 -65.218520 -31.848296 15.808273 -25.244080 3.572947 21.492274 23.161473 -26.179083 0.000000 0.000000 0.000000 -7.125000 0.000000 0.000000 -9.451912 57.572870 2.963474 0.000000 0.000000 0.000000 -3.630497 -2.501378 7.173765 -44.879749 -50.704147 -22.147151 -47.085097 -46.930572 -33.715257 0.000000 0.000000 0.000000 7.125000 0.000000 0.000000 -7.697457 -14.093223 -9.413220
-34.429662 12.831445 -7.136072 -179.453177 43.160630 174.224417 0.000000 0.000000 0.000000 -20.459827 -10.036947 -51.360959 17.264933 19.819200 81.979923 0.928933 -3.080887 -17.427951 0.061238 -1.511348 -4.158358 0.000000 0.000000 0.000000 5.947191 9.800902 -51.231898 -21.357950 -19.951156 93.974122 -0.421264 -9.119260 -18.785263 -0.498565 4.464324 -12.396157 -15.876873 -2.100713 36.705155 -3.373915 -4.359208 15.485779 5.785432 -1.433435 0.426697 -11.617720 -6.923789 -8.803047 26.558452 -5.308882 -14.596298 10.356908 -2.154749 -1.323132 0.000000 0.000000 0.000000 25.467924 -65.263124 -32.451476 16.357488 -25.992096 3.807556 21.323189 22.321248 -27.068399 0.000000 0.000000 0.000000 -7.125000 0.000000 0.000000 -10.067334 58.440464 3.355609 0.000000 0.000000 0.000000 -2.776157 -1.889313 6.601758 -45.324778 -50.923037 -22.491621 -47.234896 -47.048427 -33.544448 0.000000 0.000000 0.000000 7.125000 0.000000 0.000000 -7.829248 -13.977567 -9.565664
